<?xml version="1.0" encoding="iso-8859-1"?>
<!-- Generator: Adobe Illustrator 17.1.0, SVG Export Plug-In . SVG Version: 6.00 Build 0)  -->
<!DOCTYPE svg PUBLIC "-//W3C//DTD SVG 1.1//EN" "http://www.w3.org/Graphics/SVG/1.1/DTD/svg11.dtd">
<svg version="1.1" id="Capa_1" xmlns="http://www.w3.org/2000/svg" xmlns:xlink="http://www.w3.org/1999/xlink" x="0px" y="0px"
	 viewBox="0 0 291.34 291.34" style="enable-background:new 0 0 291.34 291.34; fill:#c5deea" xml:space="preserve">
<path d="M276.339,130.67h-19.802c-2.651-19.693-10.444-37.775-21.98-52.852l14.023-14.054c5.852-5.864,5.841-15.362-0.023-21.213
	c-5.865-5.854-15.363-5.842-21.213,0.023l-14.189,14.054c-15.037-11.452-32.819-19.188-52.819-21.827V15c0-8.284-6.716-15-15-15
	s-15,6.716-15,15v19.802c-20,2.651-37.608,10.444-52.685,21.98L63.68,42.759c-5.865-5.854-15.322-5.842-21.171,0.023
	c-5.852,5.864-5.82,15.362,0.044,21.213l14.065,14.023C45.165,93.054,37.44,111.064,34.801,130.67H15c-8.284,0-15,6.716-15,15
	s6.716,15,15,15h19.801c2.651,19.693,10.444,37.775,21.98,52.852l-14.023,14.054c-5.852,5.864-5.841,15.362,0.023,21.213
	c2.928,2.922,6.762,4.382,10.595,4.382c3.845,0,7.688-1.469,10.618-4.405l13.856-14.054c15.037,11.452,32.486,19.188,52.486,21.827
	v19.802c0,8.284,6.716,15,15,15s15-6.716,15-15v-19.802c20-2.651,37.942-10.444,53.019-21.98l14.138,14.023
	c2.928,2.922,6.803,4.382,10.636,4.382c3.845,0,7.709-1.469,10.639-4.405c5.852-5.864,5.851-15.362-0.013-21.213l-14.05-14.023
	c11.452-15.037,19.193-33.046,21.832-52.652h19.802c8.284,0,15-6.716,15-15S284.624,130.67,276.339,130.67z M226.145,130.67h-42.846
	c-0.14-0.35-0.28-0.701-0.43-1.046l30.242-30.31C219.495,108.573,224.013,119.205,226.145,130.67z M191.709,78.122l-30.327,30.311
	c-0.318-0.137-1.046-0.264-1.046-0.392V65.194C171.336,67.315,182.485,71.793,191.709,78.122z M130.336,65.194v42.847
	c0,0.14-0.534,0.28-0.879,0.43L99.064,78.229C108.323,71.844,119.336,67.327,130.336,65.194z M78.122,99.463l30.312,30.243
	c-0.137,0.318-0.264,0.641-0.392,0.963H65.194C67.315,119.268,71.792,108.687,78.122,99.463z M65.194,160.67h42.847
	c0.14,0.35,0.28,0.7,0.43,1.045l-30.242,30.311C71.844,182.766,67.326,172.135,65.194,160.67z M99.296,213.217l30.16-30.312
	c0.318,0.137,0.88,0.263,0.88,0.392v42.847C119.336,224.025,108.52,219.547,99.296,213.217z M160.336,226.146v-42.847
	c0-0.14,0.867-0.28,1.213-0.43l30.227,30.242C182.517,219.495,171.336,224.013,160.336,226.146z M213.217,191.876l-30.311-30.243
	c0.137-0.318,0.264-0.641,0.392-0.963h42.846C224.024,172.072,219.547,182.652,213.217,191.876z"/>
<g>
</g>
<g>
</g>
<g>
</g>
<g>
</g>
<g>
</g>
<g>
</g>
<g>
</g>
<g>
</g>
<g>
</g>
<g>
</g>
<g>
</g>
<g>
</g>
<g>
</g>
<g>
</g>
<g>
</g>
</svg>
