<svg xmlns="http://www.w3.org/2000/svg">
  <symbol viewBox="0 0 1792 1792" id="icon-linkedin-square">
    <title>linkedin-square</title>
    <path d="M365 1414h231v-694h-231v694zm246-908q-1-52-36-86t-93-34-94.5 34-36.5 86q0 51 35.5 85.5t92.5 34.5h1q59 0 95-34.5t36-85.5zm585 908h231v-398q0-154-73-233t-193-79q-136 0-209 117h2v-101h-231q3 66 0 694h231v-388q0-38 7-56 15-35 45-59.5t74-24.5q116 0 116 157v371zm468-998v960q0 119-84.5 203.5t-203.5 84.5h-960q-119 0-203.5-84.5t-84.5-203.5v-960q0-119 84.5-203.5t203.5-84.5h960q119 0 203.5 84.5t84.5 203.5z"
    />
  </symbol>
  <symbol viewBox="0 0 1792 1792" id="icon-google-plus-square">
    <title>google-plus-square</title>
    <path d="M1045 905q0-26-6-64h-362v132h217q-3 24-16.5 50t-37.5 53-66.5 44.5-96.5 17.5q-99 0-169-71t-70-171 70-171 169-71q92 0 153 59l104-101q-108-100-257-100-160 0-272 112.5t-112 271.5 112 271.5 272 112.5q165 0 266.5-105t101.5-270zm345 46h109v-110h-109v-110h-110v110h-110v110h110v110h110v-110zm274-535v960q0 119-84.5 203.5t-203.5 84.5h-960q-119 0-203.5-84.5t-84.5-203.5v-960q0-119 84.5-203.5t203.5-84.5h960q119 0 203.5 84.5t84.5 203.5z"
    />
  </symbol>
  <symbol viewBox="0 0 1792 1792" id="icon-github-square">
    <title>github-square</title>
    <path d="M522 1352q-8 9-20-3-13-11-4-19 8-9 20 3 12 11 4 19zm-42-61q9 12 0 19-8 6-17-7t0-18q9-7 17 6zm-61-60q-5 7-13 2-10-5-7-12 3-5 13-2 10 5 7 12zm31 34q-6 7-16-3-9-11-2-16 6-6 16 3 9 11 2 16zm129 112q-4 12-19 6-17-4-13-15t19-7q16 5 13 16zm63 5q0 11-16 11-17 2-17-11 0-11 16-11 17-2 17 11zm58-10q2 10-14 14t-18-8 14-15q16-2 18 9zm964-956v960q0 119-84.5 203.5t-203.5 84.5h-224q-16 0-24.5-1t-19.5-5-16-14.5-5-27.5v-239q0-97-52-142 57-6 102.5-18t94-39 81-66.5 53-105 20.5-150.5q0-121-79-206 37-91-8-204-28-9-81 11t-92 44l-38 24q-93-26-192-26t-192 26q-16-11-42.5-27t-83.5-38.5-86-13.5q-44 113-7 204-79 85-79 206 0 85 20.5 150t52.5 105 80.5 67 94 39 102.5 18q-40 36-49 103-21 10-45 15t-57 5-65.5-21.5-55.5-62.5q-19-32-48.5-52t-49.5-24l-20-3q-21 0-29 4.5t-5 11.5 9 14 13 12l7 5q22 10 43.5 38t31.5 51l10 23q13 38 44 61.5t67 30 69.5 7 55.5-3.5l23-4q0 38 .5 103t.5 68q0 22-11 33.5t-22 13-33 1.5h-224q-119 0-203.5-84.5t-84.5-203.5v-960q0-119 84.5-203.5t203.5-84.5h960q119 0 203.5 84.5t84.5 203.5z"
    />
  </symbol>
  <symbol viewBox="0 0 1792 1792" id="icon-copyright">
    <title>copyright</title>
    <path d="M1278 1074v109q0 50-36.5 89t-94 60.5-118 32.5-117.5 11q-205 0-342.5-139t-137.5-346q0-203 136-339t339-136q34 0 75.5 4.5t93 18 92.5 34 69 56.5 28 81v109q0 16-16 16h-118q-16 0-16-16v-70q0-43-65.5-67.5t-137.5-24.5q-140 0-228.5 91.5t-88.5 237.5q0 151 91.5 249.5t233.5 98.5q68 0 138-24t70-66v-70q0-7 4.5-11.5t10.5-4.5h119q6 0 11 4.5t5 11.5zm-382-818q-130 0-248.5 51t-204 136.5-136.5 204-51 248.5 51 248.5 136.5 204 204 136.5 248.5 51 248.5-51 204-136.5 136.5-204 51-248.5-51-248.5-136.5-204-204-136.5-248.5-51zm768 640q0 209-103 385.5t-279.5 279.5-385.5 103-385.5-103-279.5-279.5-103-385.5 103-385.5 279.5-279.5 385.5-103 385.5 103 279.5 279.5 103 385.5z"
    />
  </symbol>
</svg>