<?xml version="1.0" encoding="UTF-8" standalone="no"?>
<!-- Generator: Adobe Illustrator 19.1.0, SVG Export Plug-In . SVG Version: 6.00 Build 0)  -->

<svg
   xmlns:dc="http://purl.org/dc/elements/1.1/"
   xmlns:cc="http://creativecommons.org/ns#"
   xmlns:rdf="http://www.w3.org/1999/02/22-rdf-syntax-ns#"
   xmlns:svg="http://www.w3.org/2000/svg"
   xmlns="http://www.w3.org/2000/svg"
   xmlns:sodipodi="http://sodipodi.sourceforge.net/DTD/sodipodi-0.dtd"
   xmlns:inkscape="http://www.inkscape.org/namespaces/inkscape"
   version="1.1"
   id="Layer_1"
   x="0px"
   y="0px"
   viewBox="0 0 67.5 43.75"
   enable-background="new 0 0 64 64"
   xml:space="preserve"
   width="540"
   height="350"
   inkscape:version="0.91 r"
   sodipodi:docname="navigator-and-satellite.svg"><metadata
     id="metadata3517"><rdf:RDF><cc:Work
         rdf:about=""><dc:format>image/svg+xml</dc:format><dc:type
           rdf:resource="http://purl.org/dc/dcmitype/StillImage" /><dc:title></dc:title></cc:Work></rdf:RDF></metadata><defs
     id="defs3515" /><sodipodi:namedview
     pagecolor="#ffffff"
     bordercolor="#666666"
     borderopacity="1"
     objecttolerance="10"
     gridtolerance="10"
     guidetolerance="10"
     inkscape:pageopacity="0"
     inkscape:pageshadow="2"
     inkscape:window-width="1304"
     inkscape:window-height="745"
     id="namedview3513"
     showgrid="false"
     showborder="true"
     fit-margin-top="10"
     fit-margin-right="10"
     fit-margin-bottom="10"
     fit-margin-left="10"
     inkscape:zoom="0.4609375"
     inkscape:cx="-39.796608"
     inkscape:cy="254.06779"
     inkscape:window-x="0"
     inkscape:window-y="0"
     inkscape:window-maximized="0"
     inkscape:current-layer="Layer_1" /><g
     id="Navigator"
     transform="matrix(0.5,0,0,0.5,34.605933,16.771187)"><path
       d="m 55.636684,45.590801 c 1.930199,0 3.5005,-1.569301 3.5005,-3.499 0,-1.930702 -1.570301,-3.501 -3.5005,-3.501 -1.929683,0 -3.4995,1.570297 -3.4995,3.501 0,1.929699 1.569817,3.499 3.4995,3.499 z m 0,-5 c 0.827099,0 1.5005,0.673798 1.5005,1.501 0,0.826099 -0.673401,1.499 -1.5005,1.499 -0.826683,0 -1.4995,-0.672901 -1.4995,-1.499 0,-0.827202 0.672817,-1.501 1.4995,-1.501 z"
       id="path3469"
       inkscape:connector-curvature="0"
       style="fill:#5d90bf" /><path
       d="M 63,12 1,12 c -0.5523145,0 -1,0.4472 -1,1 l 0,38 c 0,0.5527 0.4476855,1 1,1 l 62,0 c 0.552185,0 1,-0.4473 1,-1 l 0,-38 c 0,-0.5528 -0.447815,-1 -1,-1 z m -1,38 -60,0 0,-36 60,0 0,36 z"
       id="path3471"
       inkscape:connector-curvature="0"
       style="fill:#5d90bf" /><path
       d="m 9.7250853,45.859299 36.3300967,0 c 1.996502,0 3.620602,-1.624001 3.620602,-3.620999 l 0,-20.371099 c 0,-1.996102 -1.6241,-3.620201 -3.620602,-3.620201 l -36.3300967,0 c -1.9966002,0 -3.6210852,1.624099 -3.6210852,3.620201 l 0,20.371099 c 0,1.996998 1.624485,3.620999 3.6210852,3.620999 z M 8.1040001,21.867201 c 0,-0.893601 0.7270002,-1.620201 1.6210852,-1.620201 l 36.3300967,0 c 0.893502,0 1.620602,0.7266 1.620602,1.620201 l 0,20.371099 c 0,0.893502 -0.7271,1.620999 -1.620602,1.620999 l -30.633296,0 c -0.150886,-2.286 0.435999,-4.141197 1.766598,-5.507797 1.7348,-1.781201 4.285101,-2.2724 5.971602,-2.133801 3.7246,0.288498 6.808099,0.522301 9.573297,-1.748501 l 0,1.411598 c 0,0.552803 0.447701,1 1,1 0.552201,0 1,-0.447197 1,-1 l 0,-3.919899 c 0,-0.0239 -0.012,-0.0437 -0.0136,-0.0671 -0.0047,-0.0696 -0.0216,-0.1343 -0.0406,-0.201401 -0.0171,-0.0602 -0.03218,-0.1185 -0.0598,-0.173401 -0.02739,-0.0554 -0.065,-0.102499 -0.102799,-0.152599 -0.0423,-0.0555 -0.0838,-0.1078 -0.136501,-0.153401 -0.0176,-0.0153 -0.0262,-0.0368 -0.0452,-0.0509 -0.0321,-0.0242 -0.0703,-0.03 -0.1041,-0.0498 -0.0597,-0.0352 -0.118301,-0.0662 -0.185001,-0.0884 -0.0657,-0.022 -0.130199,-0.032 -0.197784,-0.0398 -0.03941,-0.0048 -0.074,-0.0232 -0.114617,-0.0232 l -3.832998,0 c -0.5523,0 -1,0.4473 -1,1 0,0.5527 0.4477,1 1,1 l 1.5271,0 c -2.1132,1.7207 -4.455401,1.543 -8.1468,1.2598 -2.187,-0.1651 -5.310001,0.461899 -7.5249,2.735302 -1.1965,1.228798 -2.515785,3.419198 -2.327784,6.903298 l -3.7029157,0 c -0.8940849,0 -1.6210852,-0.727497 -1.6210852,-1.620999 l 0,-20.371099 z"
       id="path3473"
       inkscape:connector-curvature="0"
       style="fill:#5d90bf" /><path
       d="m 53.346184,30.0693 4.582,0 c 0.552201,0 1,-0.4473 1,-1 0,-0.5527 -0.447799,-1 -1,-1 l -4.582,0 c -0.5523,0 -1,0.4473 -1,1 0,0.5527 0.4477,1 1,1 z"
       id="path3475"
       inkscape:connector-curvature="0"
       style="fill:#5d90bf" /><path
       d="m 53.346184,25.423799 4.582,0 c 0.552201,0 1,-0.447299 1,-1 0,-0.5527 -0.447799,-1 -1,-1 l -4.582,0 c -0.5523,0 -1,0.4473 -1,1 0,0.552701 0.4477,1 1,1 z"
       id="path3477"
       inkscape:connector-curvature="0"
       style="fill:#5d90bf" /><path
       d="m 53.346184,20.9326 4.582,0 c 0.552201,0 1,-0.4473 1,-1 0,-0.5527 -0.447799,-1 -1,-1 l -4.582,0 c -0.5523,0 -1,0.4473 -1,1 0,0.5527 0.4477,1 1,1 z"
       id="path3479"
       inkscape:connector-curvature="0"
       style="fill:#5d90bf" /><path
       d="m 35.624485,28.410101 c 0.195301,0.195299 0.451199,0.292999 0.707001,0.292999 0.255897,0 0.512199,-0.0977 0.7071,-0.292999 l 1.279998,-1.280501 1.279999,1.280501 c 0.195301,0.195299 0.451203,0.292999 0.707001,0.292999 0.255901,0 0.511799,-0.0977 0.7071,-0.292999 0.390602,-0.3906 0.390602,-1.023401 0,-1.414002 l -1.2803,-1.2808 1.2803,-1.280799 c 0.390602,-0.390601 0.390602,-1.0234 0,-1.414 -0.390598,-0.3906 -1.024399,-0.3906 -1.414101,0 l -1.279999,1.2805 -1.279998,-1.2805 c -0.389702,-0.3906 -1.023503,-0.3906 -1.414101,0 -0.390602,0.3906 -0.390602,1.023399 0,1.414 l 1.2803,1.280799 -1.2803,1.2808 c -0.390602,0.390601 -0.390602,1.023402 0,1.414002 z"
       id="path3481"
       inkscape:connector-curvature="0"
       style="fill:#5d90bf" /></g><g
     id="g3483"
     transform="translate(-36.974576,-20.008474)" /><g
     id="g3485"
     transform="translate(-36.974576,-20.008474)" /><g
     id="g3487"
     transform="translate(-36.974576,-20.008474)" /><g
     id="g3489"
     transform="translate(-36.974576,-20.008474)" /><g
     id="g3491"
     transform="translate(-36.974576,-20.008474)" /><g
     id="g3493"
     transform="translate(-36.974576,-20.008474)" /><g
     id="g3495"
     transform="translate(-36.974576,-20.008474)" /><g
     id="g3497"
     transform="translate(-36.974576,-20.008474)" /><g
     id="g3499"
     transform="translate(-36.974576,-20.008474)" /><g
     id="g3501"
     transform="translate(-36.974576,-20.008474)" /><g
     id="g3503"
     transform="translate(-36.974576,-20.008474)" /><g
     id="g3505"
     transform="translate(-36.974576,-20.008474)" /><g
     id="g3507"
     transform="translate(-36.974576,-20.008474)" /><g
     id="g3509"
     transform="translate(-36.974576,-20.008474)" /><g
     id="g3511"
     transform="translate(-36.974576,-20.008474)" /><g
     transform="matrix(0,-0.05435189,0.05435189,0,1.2627325,33.415254)"
     id="g3520"><path
       style="fill:#5d90bf"
       inkscape:connector-curvature="0"
       d="m 455.518,224.995 -90.064,-90.064 14.258,-14.259 90.064,90.064 -14.258,14.259 z M 312.773,140.697 173.767,1.689 125.794,49.662 264.801,188.67 312.773,140.697 Z m 136.973,136.988 -47.971,47.97 139.01,139.01 47.971,-47.971 -139.01,-139.009 z m -81.285,61.715 95.043,-95.044 -117.408,-117.407 -95.042,95.044 41.929,41.929 -11.636,11.635 c -44.527,-34.375 -98.291,-40.361 -127.018,-11.635 -15.378,15.38 -20.797,37.939 -17.257,62.414 l 16.972,0 c -3.37,-18.604 -0.8,-34.492 7.553,-42.846 18.485,-18.485 66.012,-0.931 106.15,39.211 40.141,40.137 57.697,87.666 39.213,106.15 -8.857,8.855 -26.178,11.219 -46.229,6.883 l 0,15.221 c 24.914,3.881 47.938,-1.453 63.558,-17.068 28.182,-28.182 22.963,-80.463 -9.699,-124.48 l 11.936,-11.938 41.935,41.931 z M 28.905,342.15 0,342.15 c 0,65.42 25.476,126.924 71.738,173.18 46.256,46.26 107.761,71.736 173.178,71.736 l 0,-28.902 C 189.577,558.164 134.234,537.1 92.104,494.967 49.968,452.832 28.904,397.492 28.905,342.15 Z m 216.01,177.877 0,-28.793 C 206.724,491.236 168.525,476.697 139.449,447.619 110.37,418.543 95.831,380.344 95.831,342.15 l -28.788,0 c 0,45.57 17.345,91.145 52.039,125.834 34.691,34.694 80.26,52.041 125.833,52.043 z M 188.893,398.174 c -15.447,-15.445 -23.167,-35.736 -23.167,-56.021 l -28.789,-0.002 c -0.003,27.666 10.53,55.33 31.591,76.391 21.061,21.059 48.724,31.592 76.389,31.59 l -0.001,-28.789 c -20.286,-0.001 -40.574,-7.724 -56.023,-23.169 z m 31.859,-31.856 c 6.669,6.672 15.418,10.01 24.167,10.01 l 0,-34.178 -34.181,0 c -0.001,8.748 3.338,17.495 10.014,24.168 z"
       id="path3522" /></g></svg>